<?xml version="1.0" standalone="no"?>
<!DOCTYPE svg PUBLIC "-//W3C//DTD SVG 20010904//EN"
 "http://www.w3.org/TR/2001/REC-SVG-20010904/DTD/svg10.dtd">
<svg version="1.0" xmlns="http://www.w3.org/2000/svg"
 width="400.000000pt" height="400.000000pt" viewBox="0 0 400.000000 400.000000"
 preserveAspectRatio="xMidYMid meet">
<metadata>
Created by potrace 1.14, written by Peter Selinger 2001-2017
</metadata>
<g transform="translate(0.000000,400.000000) scale(0.100000,-0.100000)"
fill="#000000" stroke="none">
<path d="M1830 3844 c-14 -2 -59 -9 -100 -15 -258 -37 -509 -135 -745 -293
-148 -98 -365 -310 -467 -456 -124 -175 -224 -391 -277 -592 -49 -188 -56
-247 -56 -478 0 -231 7 -290 56 -478 53 -201 153 -417 277 -592 102 -146 319
-358 467 -456 234 -156 456 -244 745 -296 100 -17 450 -17 550 0 341 61 627
189 875 392 103 84 260 252 338 360 80 113 204 358 247 489 17 51 42 150 57
220 25 116 27 144 27 361 0 217 -2 245 -27 361 -38 182 -78 293 -162 464 -90
180 -176 304 -310 443 -288 300 -605 471 -1020 549 -76 14 -420 27 -475 17z
m284 -137 c22 -22 24 -35 30 -163 4 -76 9 -160 11 -185 l5 -47 -39 -4 -39 -3
-7 74 -7 74 -91 -7 c-49 -3 -110 -6 -134 -6 l-43 0 0 -75 0 -75 -34 0 -34 0
-6 98 c-18 294 -19 267 8 299 22 26 31 28 113 34 204 13 242 11 267 -14z m540
-107 c60 -23 117 -51 127 -61 19 -19 25 -74 11 -97 -14 -21 -72 5 -72 32 0 18
-18 28 -126 69 -70 26 -128 46 -129 45 -1 -2 -9 -22 -19 -46 l-16 -43 42 -17
c224 -88 243 -97 257 -126 12 -26 12 -36 -5 -85 -21 -63 -62 -111 -94 -111
-29 0 -300 105 -319 124 -17 18 -20 81 -4 97 18 18 68 -4 66 -29 -2 -17 14
-26 103 -61 155 -60 148 -60 168 -12 9 23 16 43 16 45 0 3 -60 27 -132 55 -73
29 -141 61 -150 72 -10 12 -18 35 -18 53 1 43 50 139 79 153 28 13 53 7 215
-57z m-1150 -149 c53 -99 96 -183 96 -189 0 -8 -43 -32 -58 -32 -5 0 -39 58
-77 130 -39 71 -73 130 -76 130 -4 0 -17 -52 -29 -115 -13 -65 -27 -115 -34
-115 -6 0 -58 18 -115 40 -57 23 -105 39 -107 38 -1 -2 28 -62 67 -133 38 -71
69 -131 69 -135 0 -3 -13 -14 -29 -23 l-30 -17 -34 62 c-84 153 -167 308 -167
312 0 3 16 14 37 24 l36 19 110 -44 c60 -24 111 -42 114 -40 2 2 14 55 27 116
14 62 26 114 28 115 26 20 55 36 64 36 7 0 55 -81 108 -179z m1713 -223 c160
-159 160 -144 -10 -316 l-136 -137 -28 27 -27 28 49 50 49 50 -94 95 -94 95
-53 -52 -53 -52 -28 27 -27 28 136 134 c176 175 163 174 316 23z m-978 -13
c403 -77 752 -364 905 -747 68 -169 81 -241 81 -458 0 -173 -3 -205 -24 -285
-126 -481 -490 -828 -968 -921 -118 -23 -338 -23 -456 0 -473 92 -837 434
-964 906 -34 126 -43 369 -20 505 94 536 526 947 1067 1014 96 12 275 5 379
-14z m-1437 -56 c11 -6 80 -56 154 -110 115 -85 133 -102 125 -118 -24 -44
-37 -45 -96 -1 -31 23 -58 40 -59 38 -19 -22 -156 -213 -156 -217 0 -3 25 -23
55 -44 30 -21 55 -41 55 -45 -1 -9 -37 -52 -44 -52 -10 0 -280 201 -293 218
-29 36 -15 75 67 187 114 155 138 173 192 144z m2746 -372 c12 -27 11 -28 -31
-46 -23 -10 -59 -24 -80 -32 -34 -12 -37 -16 -32 -39 17 -67 25 -73 137 -110
105 -34 108 -36 123 -73 9 -22 13 -42 10 -45 -3 -4 -62 12 -129 35 l-124 41
-62 -114 c-34 -63 -65 -114 -69 -114 -4 0 -15 18 -23 39 -15 37 -15 41 7 80
13 22 38 67 55 100 l32 60 -18 46 c-19 52 -13 51 -117 11 l-68 -26 -10 28 c-5
15 -9 31 -10 36 -1 12 384 167 392 158 3 -4 11 -20 17 -35z m-3045 -303 l97
-112 75 -17 c65 -14 75 -19 75 -38 0 -48 -12 -52 -93 -34 l-75 17 -147 -66
c-81 -36 -149 -63 -151 -61 -2 1 -1 20 3 41 6 38 9 40 110 87 56 27 103 52
103 56 0 5 -32 47 -71 95 l-70 86 11 43 c10 34 14 39 24 28 7 -8 56 -64 109
-125z m3211 -286 c3 -17 5 -33 3 -35 -2 -2 -80 -12 -173 -23 -93 -11 -188 -22
-211 -25 l-43 -6 0 39 0 39 173 20 c248 29 243 30 251 -9z m-3141 -229 c38
-47 3 -119 -59 -119 -45 0 -74 29 -74 74 0 69 88 99 133 45z m2990 -10 c73
-33 47 -139 -33 -139 -57 0 -92 53 -69 103 18 41 60 55 102 36z m-177 -453
l78 -145 63 -27 c35 -14 66 -31 69 -36 6 -9 -14 -68 -22 -68 -3 0 -35 15 -72
34 l-68 34 -162 -33 c-160 -32 -162 -32 -156 -11 16 53 29 61 140 85 60 13
110 25 112 26 2 2 -21 50 -50 108 l-52 106 17 36 c9 19 19 35 21 35 2 0 39
-65 82 -144z m-2668 107 c24 -20 142 -279 142 -310 0 -39 -36 -64 -200 -137
l-165 -75 -12 27 c-19 43 -16 48 47 75 33 15 60 30 60 34 1 17 -104 243 -112
243 -5 0 -31 -11 -58 -25 -27 -14 -54 -25 -59 -25 -6 0 -18 14 -26 30 l-16 31
68 31 c37 17 111 50 163 73 105 48 138 53 168 28z m2498 -584 c77 -82 140
-153 142 -158 1 -4 -11 -17 -27 -29 l-29 -21 -38 42 c-20 23 -69 75 -107 116
l-69 73 7 -126 7 -126 -23 0 c-13 1 -70 7 -126 14 -92 11 -101 11 -90 -3 6 -8
54 -60 104 -115 l93 -100 -22 -23 c-12 -13 -25 -23 -29 -23 -4 0 -71 68 -149
152 l-141 152 30 30 30 29 103 -12 c57 -7 112 -15 122 -18 18 -5 19 0 12 117
l-7 123 28 29 c14 15 30 28 34 28 3 0 69 -68 145 -151z m-2253 127 c18 -8 86
-68 152 -135 l120 -121 -26 -26 -26 -26 -127 123 -127 123 -94 -100 -93 -99
121 -122 122 -123 -25 -24 -25 -25 -133 127 c-125 121 -132 129 -132 166 0 36
8 47 108 149 89 91 125 121 150 126 1 1 17 -5 35 -13z m531 -380 c205 -86 203
-79 111 -299 -37 -89 -71 -166 -75 -170 -5 -6 -49 6 -69 20 -2 1 9 32 24 68
16 36 26 67 24 69 -6 5 -222 95 -237 98 -8 2 -23 -21 -38 -56 -13 -33 -26 -61
-29 -64 -6 -6 -65 19 -65 28 0 21 142 334 157 346 30 23 63 16 197 -40z m1166
25 c21 -41 12 -48 -132 -101 -79 -30 -144 -54 -145 -55 -2 -1 27 -83 32 -93 1
-1 55 18 120 43 66 24 119 43 120 42 18 -40 24 -61 18 -67 -4 -4 -34 -17 -65
-29 -32 -11 -82 -30 -112 -41 l-53 -20 16 -45 c9 -25 20 -45 25 -45 5 0 70 23
143 50 73 28 137 50 142 50 8 0 34 -60 29 -65 -10 -8 -362 -134 -365 -131 -11
10 -150 391 -144 394 26 12 339 130 348 131 7 1 17 -8 23 -18z m-503 -143 c39
-19 46 -57 41 -211 -3 -79 -10 -152 -16 -164 -18 -34 -56 -39 -239 -35 l-173
4 0 207 c0 114 2 210 5 212 9 10 360 -2 382 -13z"/>
<path d="M1920 3650 c-63 -4 -119 -8 -123 -9 -4 0 -7 -29 -5 -63 l3 -63 130 4
c72 1 134 7 139 11 12 12 -4 130 -17 128 -7 -1 -64 -5 -127 -8z"/>
<path d="M3022 3217 l-42 -43 95 -94 95 -94 45 44 45 44 -92 93 c-51 51 -95
93 -98 93 -3 0 -25 -19 -48 -43z"/>
<path d="M1940 3165 c-100 -32 -179 -132 -187 -239 -10 -118 47 -220 151 -273
67 -35 169 -38 237 -7 101 47 163 143 162 254 0 107 -51 194 -142 243 -62 34
-155 44 -221 22z"/>
<path d="M1442 2726 l-37 -35 0 -133 c1 -154 12 -203 81 -343 78 -158 234
-353 378 -473 l50 -40 -29 -44 c-31 -47 -171 -189 -330 -334 -55 -51 -97 -95
-93 -99 11 -12 130 25 200 63 71 38 232 159 348 262 l66 59 105 -39 c57 -21
106 -37 108 -35 2 2 -26 37 -63 77 -36 40 -66 78 -66 83 0 6 25 42 56 80 208
260 336 530 351 741 l6 81 -37 41 c-44 48 -91 66 -155 59 -81 -9 -114 -71
-161 -302 -12 -60 -40 -157 -61 -214 -53 -140 -139 -321 -154 -321 -37 0 -202
289 -248 435 -36 113 -36 117 -47 243 -15 178 -49 222 -170 222 -55 0 -64 -3
-98 -34z"/>
<path d="M1979 1417 c-53 -15 -94 -43 -138 -92 -46 -52 -64 -101 -64 -176 -2
-119 74 -228 185 -265 62 -20 158 -15 213 11 47 23 107 81 131 127 26 50 31
168 9 225 -50 130 -203 207 -336 170z"/>
<path d="M702 3013 c-32 -43 -68 -92 -80 -110 l-22 -31 52 -37 52 -38 23 29
c12 16 49 65 82 110 l59 81 -49 37 c-27 20 -51 36 -53 36 -3 0 -31 -35 -64
-77z"/>
<path d="M608 1528 c-27 -11 -48 -25 -48 -31 0 -12 90 -218 101 -231 8 -9 119
31 119 43 1 19 -105 241 -114 241 -6 -1 -32 -10 -58 -22z"/>
<path d="M1331 738 c-5 -13 -16 -40 -24 -60 -9 -21 -12 -40 -7 -43 20 -13 224
-95 235 -95 12 0 62 107 54 114 -2 2 -42 20 -89 39 -47 19 -102 43 -123 51
-37 16 -38 16 -46 -6z"/>
<path d="M1847 533 c-4 -38 -7 -101 -7 -140 l0 -73 140 0 140 0 0 140 0 140
-134 0 -133 0 -6 -67z"/>
</g>
</svg>
